HIERARCHY
ROOT Hips
{
	OFFSET 0.00000 0.00000 0.00000
	CHANNELS 6 Xposition Yposition Zposition Zrotation Yrotation Xrotation 
	JOINT LHipJoint
	{
		OFFSET 0 0 0
		CHANNELS 3 Zrotation Yrotation Xrotation
		JOINT LeftUpLeg
		{
			OFFSET 1.62964 -1.40469 0.78906
			CHANNELS 3 Zrotation Yrotation Xrotation
			JOINT LeftLeg
			{
				OFFSET 2.29640 -6.30932 0.00000
				CHANNELS 3 Zrotation Yrotation Xrotation
				JOINT LeftFoot
				{
					OFFSET 2.29451 -6.30412 0.00000
					CHANNELS 3 Zrotation Yrotation Xrotation
					JOINT LeftToeBase
					{
						OFFSET 0.03611 -0.09921 1.56387
						CHANNELS 3 Zrotation Yrotation Xrotation
						End Site
						{
							OFFSET 0.00000 -0.00000 0.80291
						}
					}
				}
			}
		}
	}
	JOINT RHipJoint
	{
		OFFSET 0 0 0
		CHANNELS 3 Zrotation Yrotation Xrotation
		JOINT RightUpLeg
		{
			OFFSET -1.73712 -1.40469 0.78906
			CHANNELS 3 Zrotation Yrotation Xrotation
			JOINT RightLeg
			{
				OFFSET -2.28137 -6.26801 0.00000
				CHANNELS 3 Zrotation Yrotation Xrotation
				JOINT RightFoot
				{
					OFFSET -2.28681 -6.28298 0.00000
					CHANNELS 3 Zrotation Yrotation Xrotation
					JOINT RightToeBase
					{
						OFFSET -0.15927 -0.43759 1.61103
						CHANNELS 3 Zrotation Yrotation Xrotation
						End Site
						{
							OFFSET -0.00000 -0.00000 0.84630
						}
					}
				}
			}
		}
	}
	JOINT LowerBack
	{
		OFFSET 0 0 0
		CHANNELS 3 Zrotation Yrotation Xrotation
		JOINT Spine
		{
			OFFSET -0.04227 2.04338 -0.00225
			CHANNELS 3 Zrotation Yrotation Xrotation
			JOINT Spine1
			{
				OFFSET -0.02148 2.04482 -0.04273
				CHANNELS 3 Zrotation Yrotation Xrotation
				JOINT Neck
				{
					OFFSET 0 0 0
					CHANNELS 3 Zrotation Yrotation Xrotation
					JOINT Neck1
					{
						OFFSET 0.09180 1.44629 0.19359
						CHANNELS 3 Zrotation Yrotation Xrotation
						JOINT Head
						{
							OFFSET 0.00887 1.40645 0.14750
							CHANNELS 3 Zrotation Yrotation Xrotation
							End Site
							{
								OFFSET -0.00669 1.50671 0.03707
							}
						}
					}
				}
				JOINT LeftShoulder
				{
					OFFSET 0 0 0
					CHANNELS 3 Zrotation Yrotation Xrotation
					JOINT LeftArm
					{
						OFFSET 2.17674 1.86763 -0.06520
						CHANNELS 3 Zrotation Yrotation Xrotation
						JOINT LeftForeArm
						{
							OFFSET 4.65776 -0.00000 0.00000
							CHANNELS 3 Zrotation Yrotation Xrotation
							JOINT LeftHand
							{
								OFFSET 3.55539 -0.00000 0.00000
								CHANNELS 3 Zrotation Yrotation Xrotation
								JOINT LeftFingerBase
								{
									OFFSET 0 0 0
									CHANNELS 3 Zrotation Yrotation Xrotation
									JOINT LeftHandIndex1
									{
										OFFSET 0.70726 -0.00000 0.00000
										CHANNELS 3 Zrotation Yrotation Xrotation
										End Site
										{
											OFFSET 0.57022 -0.00000 0.00000
										}
									}
								}
								JOINT LThumb
								{
									OFFSET 0 0 0
									CHANNELS 3 Zrotation Yrotation Xrotation
									End Site
									{
										OFFSET 0.57892 -0.00000 0.57892
									}
								}
							}
						}
					}
				}
				JOINT RightShoulder
				{
					OFFSET 0 0 0
					CHANNELS 3 Zrotation Yrotation Xrotation
					JOINT RightArm
					{
						OFFSET -2.80694 1.55459 -0.32496
						CHANNELS 3 Zrotation Yrotation Xrotation
						JOINT RightForeArm
						{
							OFFSET -4.71925 -0.00000 -0.00000
							CHANNELS 3 Zrotation Yrotation Xrotation
							JOINT RightHand
							{
								OFFSET -3.56990 -0.00000 0.00000
								CHANNELS 3 Zrotation Yrotation Xrotation
								JOINT RightFingerBase
								{
									OFFSET 0 0 0
									CHANNELS 3 Zrotation Yrotation Xrotation
									JOINT RightHandIndex1
									{
										OFFSET -0.50776 -0.00000 0.00000
										CHANNELS 3 Zrotation Yrotation Xrotation
										End Site
										{
											OFFSET -0.40937 -0.00000 0.00000
										}
									}
								}
								JOINT RThumb
								{
									OFFSET 0 0 0
									CHANNELS 3 Zrotation Yrotation Xrotation
									End Site
									{
										OFFSET -0.41562 -0.00000 0.41562
									}
								}
							}
						}
					}
				}
			}
		}
	}
}
MOTION
Frames: 15
Frame Time: .0083333
5.8702 16.387 32.4125 0 0 0 0 0 0 -21 0 0 0 0 0 0 0 0 0 0 0 0 0 0 21 0 0 0 0 0 0 0 0 0 0 0 0 0 0 0 0 0 0 0 0 0 0 -16 0 0 21 0 0 11 0 0 0 -8 0 0 0 0 0 0 0 0 0 0 0 0 0 0 0 0 0 0 0 0 8 0 0 0 0 0 0 0 0 0 0 0 0 0 0 0 0 0
5.8702 16.3870 32.4125 179.2700 6.9096 -151.3780 0.0000 0.0000 0.0000 -18.8670 -15.8179 -28.5283 0.2683 3.3322 9.2052 0.0876 0.6581 -5.8704 3.6819 -11.7246 -34.7644 0.0000 0.0000 0.0000 13.3180 20.4765 -33.2489 -0.8469 -5.8695 16.4063 -1.0966 -0.7761 -20.0869 -2.1171 9.1059 -26.1273 -7.5333 -1.4574 -21.2385 -0.1073 0.1641 0.3340 4.2588 -0.3164 12.3632 -1.8208 -3.6475 -3.2733 3.9158 -4.1345 22.0651 1.3572 -1.2279 7.4130 0.0000 -0.0000 0.0000 -80.2868 1.9182 23.5763 22.0495 -33.0330 -6.6128 -0.0000 0.0000 -3.2790 20.5367 -14.9780 -5.5301 -7.1250 0.0000 -0.0000 -4.7511 14.0747 3.4652 0.0000 -0.0000 0.0000 90.0207 -8.9716 6.8460 -19.3533 29.8553 -5.2055 0.0000 -0.0000 -1.7271 -13.7547 -47.9093 10.2956 7.1250 -0.0000 -0.0000 48.2664 -74.1221 -35.1192
5.8741 16.3842 32.3921 179.2140 6.7442 -151.4110 0.0000 0.0000 0.0000 -19.1426 -15.1914 -28.6585 0.2732 3.3619 9.2880 0.0917 -0.1713 -5.6585 3.7977 -11.8862 -35.3304 0.0000 0.0000 0.0000 13.3212 20.3934 -32.9419 -0.8229 -5.7880 16.1704 -1.0803 -1.1619 -20.0912 -2.0188 8.9050 -25.4987 -7.4876 -1.4511 -21.3395 -0.1224 0.1754 0.3044 4.2202 -0.3058 12.3850 -1.7879 -3.6226 -3.3355 3.8807 -4.0841 22.1819 1.3446 -1.1957 7.4596 0.0000 0.0000 0.0000 -80.3098 1.8200 23.6625 22.0662 -33.0517 -6.6219 -0.0000 0.0000 -3.1775 19.4862 -14.1856 -4.9560 -7.1250 0.0000 -0.0000 -5.4335 15.0168 3.8578 0.0000 0.0000 0.0000 90.0845 -9.1368 6.5554 -19.2807 29.7659 -5.1695 0.0000 -0.0000 -1.7835 -13.8924 -48.1197 10.4341 7.1250 -0.0000 -0.0000 48.7705 -74.2957 -35.6871
5.8753 16.3772 32.3672 179.0950 6.6069 -151.4620 0.0000 0.0000 0.0000 -19.3410 -15.1850 -28.4732 0.2689 3.3360 9.2158 0.0919 -0.3335 -5.6144 3.7339 -11.7976 -35.0196 0.0000 0.0000 0.0000 13.3028 19.9918 -32.6076 -0.7668 -5.5917 15.6042 -1.0257 -1.4243 -19.6979 -2.0049 8.8763 -25.4091 -7.4035 -1.3616 -21.5264 -0.2733 0.3170 0.2805 4.0486 -0.2266 12.4460 -1.5579 -3.6854 -3.2167 3.8612 -4.1659 22.2454 1.2965 -1.2070 7.4563 0.0000 0.0000 0.0000 -80.1015 1.6892 24.0251 22.0713 -33.0575 -6.6247 -0.0000 0.0000 -3.2111 19.6325 -14.0645 -4.9545 -7.1250 0.0000 -0.0000 -5.3295 15.1291 3.7704 0.0000 0.0000 0.0000 90.4411 -9.4491 6.0581 -19.3135 29.8063 -5.1857 0.0000 -0.0000 -1.8224 -14.2079 -48.3232 10.7085 7.1250 -0.0000 -0.0000 49.1138 -74.5312 -36.1849
5.8784 16.3731 32.3440 178.9160 6.4369 -151.5270 0.0000 0.0000 0.0000 -19.6028 -15.1624 -28.3310 0.2697 3.3406 9.2286 0.0859 -0.4905 -5.3825 3.7308 -11.7933 -35.0046 0.0000 0.0000 0.0000 13.2959 19.4950 -32.1888 -0.6983 -5.3417 14.8857 -0.9544 -1.7732 -19.1755 -2.1165 9.1047 -26.1233 -7.4524 -1.5848 -21.6917 -0.1769 0.0387 0.2829 4.0986 -0.3666 12.5784 -1.8725 -3.5758 -3.2400 3.7295 -3.9473 22.3870 1.3236 -1.1346 7.5049 -0.0000 -0.0000 0.0000 -80.4971 1.7639 23.5593 22.1617 -33.1593 -6.6741 -0.0000 0.0000 -3.1617 20.1715 -13.8410 -5.0225 -7.1250 0.0000 -0.0000 -4.9529 15.3101 3.4826 -0.0000 -0.0000 0.0000 90.1456 -9.5239 6.2846 -19.2125 29.6818 -5.1356 0.0000 -0.0000 -1.8355 -14.4719 -48.4885 10.9385 7.1250 -0.0000 -0.0000 49.3985 -74.7248 -36.5975
5.8817 16.3673 32.3248 178.7950 6.2191 -151.4640 0.0000 0.0000 0.0000 -19.7099 -15.2374 -28.3383 0.2698 3.3410 9.2296 0.0941 -0.9173 -5.5424 3.8305 -11.9314 -35.4897 0.0000 0.0000 0.0000 13.3354 19.1111 -31.9472 -0.6508 -5.1603 14.3662 -0.9071 -2.1624 -18.8955 -2.3139 9.4913 -27.3447 -7.4426 -1.7586 -21.9449 -0.0915 -0.1781 0.2645 4.1215 -0.4726 12.7291 -2.2273 -3.4238 -3.3190 3.6856 -3.6863 22.4895 1.3888 -1.0400 7.5515 -0.0000 -0.0000 0.0000 -80.8675 1.8131 23.2460 22.2690 -33.2797 -6.7328 -0.0000 0.0000 -3.1288 20.7742 -13.6360 -5.1105 -7.1250 0.0000 -0.0000 -4.5320 15.4655 3.1695 -0.0000 -0.0000 0.0000 89.9846 -9.4439 6.1576 -19.0416 29.4703 -5.0513 0.0000 -0.0000 -1.6719 -14.3532 -48.5405 10.8556 7.1250 -0.0000 -0.0000 49.6616 -74.7086 -36.7980
5.8837 16.3674 32.3042 178.7130 6.0635 -151.5940 0.0000 0.0000 0.0000 -19.7662 -15.4882 -27.9012 0.2567 3.2597 9.0025 0.0917 -0.7590 -5.4994 3.6704 -11.7083 -34.7078 0.0000 0.0000 0.0000 13.4821 18.6197 -31.5735 -0.6175 -5.0291 13.9916 -0.9115 -1.9467 -18.8378 -2.3194 9.5019 -27.3784 -7.3508 -1.7594 -21.9757 -0.1163 -0.1957 0.2660 4.0353 -0.4740 12.7494 -2.2583 -3.4425 -3.2619 3.5835 -3.6876 22.4573 1.3608 -1.0528 7.5295 0.0000 -0.0000 0.0000 -81.0424 1.7743 23.1203 22.2692 -33.2799 -6.7330 -0.0000 0.0000 -3.0200 20.5585 -13.9727 -5.1746 -7.1250 0.0000 -0.0000 -4.6932 15.1320 3.3166 0.0000 -0.0000 0.0000 90.0807 -9.4291 5.7141 -18.8815 29.2711 -4.9728 0.0000 -0.0000 -1.3636 -14.2966 -48.6977 10.8376 7.1250 -0.0000 -0.0000 50.2030 -74.7742 -37.3042
5.8839 16.3697 32.2841 178.6730 5.9402 -151.7130 0.0000 0.0000 0.0000 -19.8449 -15.4703 -27.7177 0.2599 3.2800 9.0592 0.0895 -0.8018 -5.4217 3.5816 -11.5818 -34.2680 0.0000 0.0000 0.0000 13.5176 18.3490 -31.1793 -0.5848 -4.8966 13.6139 -0.9289 -1.4966 -18.8065 -1.9624 8.7874 -25.1325 -7.1934 -1.6949 -21.9683 -0.1723 -0.1428 0.2423 3.8990 -0.4338 12.7091 -2.2184 -3.5221 -3.1356 3.5945 -3.8120 22.3006 1.3484 -1.1141 7.4585 0.0000 -0.0000 0.0000 -81.1519 1.6677 23.0111 22.1849 -33.1854 -6.6868 -0.0000 0.0000 -2.8888 19.9467 -14.3621 -5.1440 -7.1250 0.0000 -0.0000 -5.1259 14.7851 3.6630 0.0000 -0.0000 0.0000 90.2011 -9.4635 5.3118 -18.7347 29.0876 -4.9012 0.0000 -0.0000 -1.0182 -14.4253 -48.9901 10.9846 7.1250 -0.0000 -0.0000 51.0308 -74.9822 -38.1847
5.8838 16.3704 32.2604 178.7540 5.7788 -151.8050 0.0000 0.0000 0.0000 -19.6934 -15.8014 -27.2918 0.2500 3.2173 8.8844 0.0904 -0.4256 -5.5418 3.6036 -11.6133 -34.3774 0.0000 0.0000 0.0000 13.6588 18.3361 -30.6600 -0.5447 -4.7284 13.1356 -0.9208 -1.5392 -18.7459 -1.7704 8.3706 -23.8454 -6.9536 -1.6655 -22.0095 -0.1195 -0.1714 0.2300 3.8125 -0.4343 12.7190 -2.1268 -3.5955 -3.1201 3.3578 -3.8840 22.2459 1.2494 -1.1653 7.4336 0.0000 -0.0000 0.0000 -81.4564 1.6151 22.7641 22.1080 -33.0988 -6.6447 -0.0000 0.0000 -2.7504 19.8004 -14.2579 -5.0672 -7.1250 0.0000 -0.0000 -5.2218 14.9094 3.7182 0.0000 -0.0000 0.0000 90.1361 -9.4579 5.1017 -18.5728 28.8844 -4.8227 0.0000 -0.0000 -0.7256 -14.1991 -48.8458 10.7862 7.1250 -0.0000 -0.0000 50.7528 -74.8178 -37.7987
5.8845 16.3719 32.2353 178.7700 5.6006 -151.9220 0.0000 0.0000 0.0000 -19.5940 -16.3590 -26.6550 0.2297 3.0850 8.5155 0.0916 0.1031 -5.7540 3.5850 -11.5866 -34.2848 0.0000 0.0000 0.0000 13.8720 18.1232 -30.1889 -0.5123 -4.5879 12.7368 -0.9037 -1.7893 -18.6889 -1.9342 8.7277 -24.9472 -6.8162 -1.6774 -22.0423 -0.0572 -0.2291 0.2110 3.7859 -0.4543 12.7211 -2.4655 -3.3542 -3.3328 3.4734 -3.4861 22.7129 1.3777 -0.9655 7.6231 -0.0000 -0.0000 0.0000 -81.7835 1.6700 22.6043 22.0587 -33.0433 -6.6178 -0.0000 0.0000 -2.7745 20.1269 -13.9395 -5.0452 -7.1250 0.0000 -0.0000 -4.9871 15.2109 3.5174 -0.0000 -0.0000 0.0000 90.0183 -9.5536 5.0369 -18.4429 28.7206 -4.7602 0.0000 -0.0000 -0.7082 -14.0693 -48.3902 10.6129 7.1250 -0.0000 -0.0000 49.4379 -74.5165 -36.4355
5.8855 16.3783 32.2168 178.6730 5.4891 -152.0560 0.0000 0.0000 0.0000 -19.8087 -16.1922 -26.6270 0.2454 3.1879 8.8023 0.0954 -0.3169 -5.7291 3.3931 -11.3057 -33.3178 0.0000 0.0000 0.0000 13.9538 17.8110 -29.8432 -0.4901 -4.4888 12.4560 -0.8911 -1.8846 -18.6070 -2.0397 8.9483 -25.6336 -6.8134 -1.6591 -22.0220 -0.0754 -0.2034 0.1886 3.7722 -0.4385 12.6804 -2.3492 -3.4157 -3.2299 3.4161 -3.5788 22.5840 1.3320 -1.0096 7.5615 -0.0000 0.0000 0.0000 -81.9575 1.6731 22.6691 21.9910 -32.9669 -6.5810 -0.0000 0.0000 -2.9040 20.4776 -13.6928 -5.0518 -7.1250 0.0000 -0.0000 -4.7376 15.4355 3.3173 -0.0000 0.0000 0.0000 89.9560 -9.7805 5.1576 -18.4607 28.7430 -4.7687 0.0000 -0.0000 -1.1073 -14.3034 -48.4445 10.8017 7.1250 -0.0000 -0.0000 49.4056 -74.6360 -36.5206
5.8853 16.3815 32.2026 178.6670 5.4991 -151.9980 0.0000 0.0000 0.0000 -19.8019 -16.3039 -26.6255 0.2515 3.2267 8.9105 0.1091 -0.3350 -6.1277 3.6476 -11.6761 -34.5957 0.0000 0.0000 0.0000 13.9418 17.7959 -29.7616 -0.4768 -4.4281 12.2844 -0.8825 -1.9474 -18.5506 -2.0467 8.9627 -25.6786 -6.7344 -1.5618 -22.2042 -0.0958 -0.0721 0.1350 3.7482 -0.3685 12.7052 -2.3236 -3.4538 -3.0803 3.4105 -3.6478 22.3457 1.3201 -1.0508 7.4574 -0.0000 -0.0000 0.0000 -82.1435 1.6448 22.7911 21.9349 -32.9034 -6.5504 -0.0000 0.0000 -2.9758 20.4864 -13.6747 -5.0476 -7.1250 0.0000 -0.0000 -4.7309 15.4536 3.3107 -0.0000 -0.0000 0.0000 89.9263 -9.9697 5.0971 -18.5546 28.8615 -4.8140 0.0000 -0.0000 -1.1790 -13.7055 -48.9197 10.4164 7.1250 -0.0000 -0.0000 51.3904 -74.6695 -38.1845
5.8873 16.3842 32.1880 178.6110 5.6468 -151.9970 0.0000 0.0000 0.0000 -19.9134 -16.2900 -26.5477 0.2516 3.2274 8.9125 0.1113 -0.1196 -6.2575 3.8878 -12.0096 -35.7658 0.0000 0.0000 0.0000 13.8277 17.8637 -29.6090 -0.4611 -4.3559 12.0802 -0.8783 -1.9034 -18.4885 -1.9897 8.8446 -25.3105 -6.7764 -1.4644 -22.3572 -0.1323 0.0898 0.1071 3.7855 -0.2934 12.7408 -2.3752 -3.4031 -2.8240 3.5137 -3.6124 21.9779 1.3649 -1.0444 7.2921 -0.0000 -0.0000 0.0000 -82.3699 1.6591 22.7063 21.9523 -32.9230 -6.5599 -0.0000 0.0000 -3.3731 19.9051 -13.7678 -4.9252 -7.1250 0.0000 -0.0000 -5.1328 15.4134 3.5986 -0.0000 -0.0000 0.0000 89.9447 -9.9667 4.7152 -18.5520 28.8582 -4.8127 0.0000 -0.0000 -0.6155 -12.5007 -49.1213 9.5161 7.1250 -0.0000 -0.0000 52.9878 -74.3198 -39.1691
5.8891 16.3896 32.1710 178.4990 5.7688 -152.0130 0.0000 0.0000 0.0000 -20.1042 -16.2153 -26.5519 0.2593 3.2759 9.0478 0.1216 -0.3632 -6.4656 3.9595 -12.1063 -36.1090 0.0000 0.0000 0.0000 13.6667 17.8534 -29.4157 -0.4453 -4.2813 11.8694 -0.8771 -1.8046 -18.4307 -1.8496 8.5456 -24.3839 -6.8703 -1.4098 -22.5035 -0.1836 0.2102 0.1024 3.8222 -0.2422 12.8047 -2.3525 -3.2816 -2.8932 3.5348 -3.4420 22.0307 1.3804 -0.9545 7.3160 0.0000 0.0000 0.0000 -82.5360 1.6563 22.5741 22.0041 -32.9817 -6.5881 -0.0000 0.0000 -4.0342 19.0094 -13.7953 -4.6963 -7.1250 0.0000 -0.0000 -5.7473 15.4714 4.0265 0.0000 0.0000 0.0000 89.9817 -9.8239 4.2941 -18.4434 28.7212 -4.7604 0.0000 -0.0000 -0.2042 -12.2850 -49.1017 9.3471 7.1250 -0.0000 -0.0000 53.0967 -74.2283 -39.1695
5.8913 16.3942 32.1571 178.5240 5.6586 -151.9040 0.0000 0.0000 0.0000 -20.0509 -16.2464 -26.7305 0.2743 3.3687 9.3071 0.1242 -0.5366 -6.4862 3.8692 -11.9843 -35.6765 0.0000 0.0000 0.0000 13.7551 17.8179 -29.3193 -0.4350 -4.2321 11.7307 -0.8708 -1.9108 -18.4170 -1.8395 8.5235 -24.3159 -6.7933 -1.3960 -22.6486 -0.1588 0.2215 0.0443 3.8118 -0.2292 12.8176 -2.2531 -3.2042 -3.1591 3.4202 -3.3044 22.2985 1.3363 -0.8774 7.4434 -0.0000 -0.0000 0.0000 -82.6929 1.7386 22.7062 22.0512 -33.0349 -6.6138 -0.0000 0.0000 -4.3654 18.7350 -13.7701 -4.6155 -7.1250 0.0000 -0.0000 -5.9346 15.5236 4.1525 -0.0000 -0.0000 0.0000 89.9380 -9.7234 4.0650 -18.3236 28.5695 -4.7030 0.0000 -0.0000 -0.2064 -12.7259 -49.1726 9.6973 7.1250 -0.0000 -0.0000 52.9707 -74.4313 -39.2645
